<svg width="70" height="70" viewBox="0 0 70 70" fill="none" xmlns="http://www.w3.org/2000/svg">
<path d="M56.462 53.4215C60.8702 48.2933 63.2979 41.7512 63.2979 35C63.2979 19.3966 50.6035 6.70215 35 6.70215C19.3966 6.70215 6.70215 19.3966 6.70215 35C6.70215 50.6035 19.3966 63.2979 35 63.2979C41.7512 63.2979 48.2933 60.8702 53.4215 56.462C53.8836 56.0648 54.5771 56.1126 54.9816 56.5649C55.5291 56.0572 56.0574 55.5291 56.5651 54.9816C56.1126 54.5771 56.0647 53.8836 56.462 53.4215ZM33.883 10.0532C33.883 9.43632 34.3831 8.93619 35 8.93619C35.6169 8.93619 36.117 9.43632 36.117 10.0532V14.5213C36.117 15.1382 35.6169 15.6383 35 15.6383C34.3831 15.6383 33.883 15.1382 33.883 14.5213V10.0532ZM14.5213 36.117H10.0532C9.43632 36.117 8.93619 35.6169 8.93619 35C8.93619 34.3831 9.43632 33.883 10.0532 33.883H14.5213C15.1382 33.883 15.6383 34.3831 15.6383 35C15.6383 35.6169 15.1382 36.117 14.5213 36.117ZM36.117 59.9468C36.117 60.5637 35.6169 61.0639 35 61.0639C34.3831 61.0639 33.883 60.5637 33.883 59.9468V55.4787C33.883 54.8619 34.3831 54.3617 35 54.3617C35.6169 54.3617 36.117 54.8619 36.117 55.4787V59.9468ZM53.43 21.3092L39.0338 35.7054C38.6983 37.6287 37.0178 39.0958 35 39.0958C34.2759 39.0958 33.5956 38.9062 33.0047 38.5751L21.3161 50.2637C21.098 50.4818 20.8121 50.591 20.5263 50.591C20.2404 50.591 19.9545 50.4819 19.7364 50.2637C19.3002 49.8275 19.3002 49.1202 19.7364 48.6841L31.4251 36.9955C31.2041 36.6009 31.0468 36.1665 30.9664 35.7055L21.3092 26.0484C20.873 25.6121 20.873 24.9048 21.3092 24.4687L24.4686 21.3094C24.9048 20.8731 25.6121 20.8731 26.0482 21.3094L35.7054 30.9665C35.7527 30.9747 35.8 30.9831 35.8467 30.993L37.3689 29.4711C36.9331 29.0348 36.9331 28.3278 37.3693 27.8917L48.6908 16.5702C48.9002 16.3608 49.1844 16.243 49.4806 16.243C49.7769 16.243 50.061 16.3607 50.2705 16.5702L53.4298 19.7296C53.8662 20.1657 53.8662 20.873 53.43 21.3092ZM55.4787 36.117C54.8619 36.117 54.3617 35.6169 54.3617 35C54.3617 34.3831 54.8619 33.883 55.4787 33.883H59.9468C60.5637 33.883 61.0639 34.3831 61.0639 35C61.0639 35.6169 60.5637 36.117 59.9468 36.117H55.4787Z" fill="white"/>
<path d="M31.4249 33.0046C31.7953 32.3435 32.3436 31.7953 33.0047 31.4249L25.2585 23.6787L23.6788 25.2585L31.4249 33.0046Z" fill="#4889EB"/>
<path d="M38.575 33.0047L51.0604 20.5193L49.4806 18.9396L38.949 29.4713C38.5128 29.9075 37.8055 29.9075 37.3694 29.4713C37.369 29.4709 35.847 30.9928 35.847 30.9928C37.0184 31.2401 38.0063 31.9897 38.575 33.0047Z" fill="#D7DADF"/>
<path d="M35 2.23413C16.9327 2.23413 2.23407 16.9329 2.23407 35.0001C2.23407 53.0674 16.9327 67.766 35 67.766C53.0673 67.766 67.766 53.0674 67.766 35.0001C67.766 16.9329 53.0673 2.23413 35 2.23413ZM58.1562 54.8779C57.754 55.3457 57.049 55.399 56.5809 54.9967C56.5752 54.9919 56.5704 54.9864 56.5649 54.9815C56.0572 55.529 55.5291 56.0573 54.9815 56.5649C54.9864 56.5704 54.9917 56.5751 54.9966 56.5808C55.3988 57.0486 55.3456 57.7538 54.8778 58.1561C49.3445 62.9127 42.2852 65.532 35 65.532C18.1646 65.532 4.46811 51.8355 4.46811 35.0001C4.46811 18.1648 18.1646 4.46817 35 4.46817C51.8355 4.46817 65.5319 18.1648 65.5319 35.0001C65.5319 42.2853 62.9126 49.3446 58.1562 54.8779Z" fill="#D7DADF"/>
<path d="M59.7487 10.2513C53.1382 3.6406 44.3489 0 35 0C25.6511 0 16.8618 3.6406 10.2513 10.2513C3.6406 16.862 0 25.6511 0 35C0 44.3489 3.6406 53.1382 10.2513 59.7487C16.8618 66.3594 25.6511 70 35 70C44.3489 70 53.1382 66.3594 59.7487 59.7487C66.3594 53.1382 70 44.3489 70 35C70 25.6511 66.3594 16.862 59.7487 10.2513ZM35 67.766C16.9327 67.766 2.23404 53.0673 2.23404 35C2.23404 16.9329 16.9327 2.23404 35 2.23404C53.0673 2.23404 67.766 16.9329 67.766 35C67.766 53.0673 53.0673 67.766 35 67.766Z" fill="#212121"/>
<path d="M36.8617 35C36.8617 33.9734 36.0266 33.1383 35 33.1383C33.9734 33.1383 33.1383 33.9734 33.1383 35C33.1383 36.0266 33.9734 36.8617 35 36.8617C36.0266 36.8617 36.8617 36.0266 36.8617 35Z" fill="#D7DADF"/>
<path d="M35 15.6383C35.6169 15.6383 36.117 15.1382 36.117 14.5213V10.0532C36.117 9.43628 35.6169 8.93616 35 8.93616C34.3831 8.93616 33.883 9.43628 33.883 10.0532V14.5213C33.883 15.1382 34.3831 15.6383 35 15.6383Z" fill="#212121"/>
<path d="M61.0638 35.0001C61.0638 34.3832 60.5637 33.8831 59.9468 33.8831H55.4787C54.8618 33.8831 54.3617 34.3832 54.3617 35.0001C54.3617 35.617 54.8618 36.1171 55.4787 36.1171H59.9468C60.5637 36.1171 61.0638 35.617 61.0638 35.0001Z" fill="#212121"/>
<path d="M35 54.3617C34.3831 54.3617 33.883 54.8618 33.883 55.4787V59.9468C33.883 60.5637 34.3831 61.0638 35 61.0638C35.6169 61.0638 36.117 60.5637 36.117 59.9468V55.4787C36.117 54.8618 35.6169 54.3617 35 54.3617Z" fill="#212121"/>
<path d="M14.5213 33.8831H10.0532C9.43628 33.8831 8.93616 34.3832 8.93616 35.0001C8.93616 35.617 9.43628 36.1171 10.0532 36.1171H14.5213C15.1382 36.1171 15.6383 35.617 15.6383 35.0001C15.6383 34.3832 15.1382 33.8831 14.5213 33.8831Z" fill="#212121"/>
<path d="M50.2704 16.57C50.061 16.3606 49.7768 16.2428 49.4806 16.2428C49.1844 16.2428 48.9002 16.3605 48.6908 16.57L37.3693 27.8915C36.9332 28.3276 36.933 29.0346 37.3688 29.4709C37.8054 29.9075 38.5127 29.9075 38.9489 29.4713L49.4805 18.9396L51.0602 20.5194L38.5749 33.0047C38.0061 31.9897 37.0182 31.2401 35.8467 30.9927C35.7999 30.9829 35.7526 30.9745 35.7054 30.9662L26.0482 21.309C25.6119 20.8728 24.9047 20.8728 24.4686 21.309L21.3092 24.4684C20.8729 24.9046 20.8729 25.6119 21.3092 26.048L30.9664 35.7052C31.0468 36.166 31.2041 36.6006 31.4251 36.9951L19.7364 48.6838C19.3002 49.12 19.3002 49.8273 19.7364 50.2634C19.9545 50.4814 20.2404 50.5906 20.5262 50.5906C20.812 50.5906 21.098 50.4816 21.316 50.2634L33.0047 38.5747C33.5955 38.9058 34.2759 39.0954 35 39.0954C37.0178 39.0954 38.6982 37.6284 39.0336 35.7052L53.4298 21.309C53.866 20.8728 53.866 20.1655 53.4298 19.7294L50.2704 16.57ZM33.0047 31.4249C32.3436 31.7953 31.7953 32.3435 31.4249 33.0047L23.6788 25.2585L25.2585 23.6787L33.0047 31.4249ZM33.1383 35C33.1383 33.9734 33.9734 33.1383 35 33.1383C36.0266 33.1383 36.8617 33.9734 36.8617 35C36.8617 36.0266 36.0266 36.8617 35 36.8617C33.9734 36.8617 33.1383 36.0266 33.1383 35Z" fill="#212121"/>
<path d="M35 4.46802C18.1645 4.46802 4.46808 18.1646 4.46808 34.9999C4.46808 51.8354 18.1645 65.5318 35 65.5318C42.2852 65.5318 49.3445 62.9125 54.8778 58.1561C55.3456 57.754 55.3989 57.0486 54.9966 56.5808C54.9918 56.5751 54.9863 56.5704 54.9814 56.5648C54.5769 56.1125 53.8836 56.0647 53.4213 56.4619C48.2933 60.8701 41.7511 63.2978 35 63.2978C19.3965 63.2978 6.70212 50.6034 6.70212 34.9999C6.70212 19.3965 19.3965 6.70206 35 6.70206C50.6034 6.70206 63.2979 19.3965 63.2979 34.9999C63.2979 41.7511 60.8702 48.2932 56.462 53.4214C56.0646 53.8835 56.1126 54.577 56.5649 54.9815C56.5704 54.9864 56.5752 54.9918 56.5808 54.9967C57.049 55.3988 57.754 55.3455 58.1561 54.8778C62.9126 49.3444 65.5319 42.2851 65.5319 34.9999C65.5319 18.1646 51.8354 4.46802 35 4.46802Z" fill="#212121"/>
</svg>
