<svg width="76" height="76" viewBox="0 0 76 76" fill="none" xmlns="http://www.w3.org/2000/svg">
<path d="M31.9199 68.8262H44.0801V63.2481C44.0801 62.5765 44.6244 62.032 45.2962 62.032V59.6H31.9199V68.8262Z" fill="#D7DADF"/>
<path d="M73.5679 49.0277H2.43205V53.52C2.43205 55.5317 4.06866 57.1681 6.08013 57.1681H69.9199C71.9313 57.1681 73.5679 55.5317 73.5679 53.52V49.0277Z" fill="#D7DADF"/>
<path d="M69.9199 4.7417H6.08013C2.72747 4.7417 0 7.46916 0 10.8218V53.5199C0 56.8726 2.72747 59.6 6.08013 59.6H29.4878V68.8263H24.2184C23.5466 68.8263 23.0023 69.3707 23.0023 70.0423C23.0023 70.7139 23.5466 71.2583 24.2184 71.2583H51.7816C52.4534 71.2583 52.9977 70.7139 52.9977 70.0423C52.9977 69.3707 52.4534 68.8263 51.7816 68.8263H46.5122V63.2481C46.5122 62.5765 45.9679 62.0321 45.2962 62.0321C44.6244 62.0321 44.0801 62.5765 44.0801 63.2481V68.8263H31.9199V59.6H69.9199C73.2725 59.6 76 56.8726 76 53.5199V10.8218C76 7.46916 73.2725 4.7417 69.9199 4.7417ZM69.9199 57.168H6.08013C4.06866 57.168 2.43205 55.5315 2.43205 53.5199V49.0276H73.5679V53.5199C73.5679 55.5315 71.9313 57.168 69.9199 57.168ZM6.08013 7.17375H69.9199C71.9313 7.17375 73.5679 8.8102 73.5679 10.8218V46.5957H2.43205V10.8218C2.43205 8.8102 4.06866 7.17375 6.08013 7.17375Z" fill="#212121"/>
<path d="M9.71604 14.4321L66.284 14.4705C66.9557 14.4705 67.5 13.9261 67.5 13.2545C67.5 12.5829 66.9557 12.0385 66.284 12.0385L9.71604 12C9.04431 12 8.50002 12.5445 8.50002 13.216C8.50002 13.8876 9.04431 14.4321 9.71604 14.4321Z" fill="#212121"/>
<path d="M9.71604 21.2087L66.284 21.2472C66.9557 21.2472 67.5 20.7027 67.5 20.0311C67.5 19.3596 66.9557 18.8151 66.284 18.8151L9.71604 18.7766C9.04431 18.7766 8.50002 19.3211 8.50002 19.9927C8.50002 20.6642 9.04431 21.2087 9.71604 21.2087Z" fill="#212121"/>
<path d="M9.71607 27.9853H38.784C39.4557 27.9853 40 27.4408 40 26.7692C40 26.0977 39.4557 25.5532 38.784 25.5532H9.71607C9.04434 25.5532 8.50004 26.0977 8.50004 26.7692C8.50004 27.4408 9.04434 27.9853 9.71607 27.9853Z" fill="#212121"/>
<path d="M9.71604 34.7619L31.784 34.716C32.4557 34.716 33 34.1716 33 33.5C33 32.8284 32.4557 32.284 31.784 32.284L9.71604 32.3298C9.04431 32.3298 8.50002 32.8743 8.50002 33.5459C8.50002 34.2174 9.04431 34.7619 9.71604 34.7619Z" fill="#212121"/>
<path d="M9.71604 41.5385H43.5C44.1717 41.5385 44.716 40.994 44.716 40.3225C44.716 39.6509 44.1717 39.1064 43.5 39.1064H9.71604C9.04431 39.1064 8.50002 39.6509 8.50002 40.3225C8.50002 40.994 9.04431 41.5385 9.71604 41.5385Z" fill="#212121"/>
<g clip-path="url(#clip0)">
<path d="M59 26C54.5818 26 51.0001 29.5818 51.0001 33.9999C51.0001 38.4179 54.5818 42 58.9999 42C63.418 42 67 38.4179 67 33.9999C67 29.5818 63.418 26 59 26ZM62.3749 34.88H59.8006V37.5716C59.8004 38.023 59.4345 38.3888 58.9831 38.3888C58.5315 38.3888 58.1656 38.023 58.1656 37.5714V34.88H55.6598C55.2082 34.8798 54.8425 34.5139 54.8423 34.0625C54.8423 33.6111 55.2083 33.2451 55.6598 33.245L58.1655 33.2452V30.8563C58.1655 30.4048 58.5316 30.0388 58.9829 30.0388C59.4345 30.0388 59.8006 30.4049 59.8004 30.8563L59.8006 33.2449L62.3747 33.2452C62.8262 33.2449 63.1923 33.6111 63.1922 34.0627C63.1923 34.5142 62.8262 34.88 62.3749 34.88Z" fill="#4889EB"/>
</g>
<defs>
<clipPath id="clip0">
<rect width="16" height="16" fill="white" transform="translate(51 26)"/>
</clipPath>
</defs>
</svg>
