<svg width="20" height="20" viewBox="0 0 20 20" fill="none" xmlns="http://www.w3.org/2000/svg">
<path fill-rule="evenodd" clip-rule="evenodd" d="M19.4 14.7096C19.4 13.8651 19.1993 13.0679 18.8423 12.3595C18.9825 11.7275 19.0555 11.0731 19.0555 10.4008C19.0555 5.36328 14.9139 1.27808 9.80267 1.27808C9.26428 1.27808 8.73618 1.32422 8.22061 1.41199C7.39365 0.898071 6.41498 0.600098 5.36673 0.600098C2.40219 0.600098 0 2.96814 0 5.89172C0 6.8678 0.269196 7.78076 0.736847 8.56787C0.614807 9.1593 0.549774 9.77332 0.549774 10.4008C0.549774 15.4406 4.6926 19.5245 9.80267 19.5245C10.3821 19.5245 10.9479 19.4717 11.4977 19.3716C12.2539 19.7719 13.1162 20.0001 14.0345 20.0001C16.9978 20.0001 19.4 17.6309 19.4 14.7096ZM15.1968 12.7261C15.1968 13.4772 14.9778 14.162 14.5489 14.7614C14.1212 15.3595 13.4893 15.8318 12.668 16.1669C11.857 16.4998 10.8852 16.6696 9.77762 16.6696C8.44876 16.6696 7.33435 16.439 6.46405 15.9836C5.84241 15.6531 5.33026 15.2054 4.94128 14.65C4.54779 14.0923 4.3493 13.538 4.3493 13.0016C4.3493 12.6687 4.47934 12.3787 4.73483 12.1414C4.98807 11.9053 5.31314 11.7872 5.70096 11.7872C6.01807 11.7872 6.29297 11.8805 6.51538 12.066C6.72867 12.2449 6.91119 12.509 7.05832 12.8475C7.22256 13.2186 7.40051 13.5312 7.58871 13.7751C7.77124 14.0135 8.03244 14.2126 8.36551 14.3689C8.70084 14.524 9.15369 14.605 9.70917 14.605C10.4745 14.605 11.1019 14.4431 11.573 14.126C12.0349 13.8168 12.2585 13.4435 12.2585 12.9869C12.2585 12.6283 12.141 12.3448 11.9015 12.1223C11.6483 11.8906 11.3163 11.7107 10.9137 11.5848C10.4928 11.4565 9.92249 11.316 9.21643 11.1699C8.25485 10.9674 7.4393 10.7279 6.79141 10.4547C6.12756 10.177 5.59259 9.79126 5.20135 9.30896C4.80441 8.8175 4.60254 8.20251 4.60254 7.47949C4.60254 6.79126 4.81354 6.16943 5.23102 5.63428C5.64392 5.10242 6.24847 4.68628 7.02753 4.40405C7.79517 4.12415 8.7077 3.98242 9.74225 3.98242C10.5681 3.98242 11.2947 4.0769 11.9015 4.26355C12.5117 4.4502 13.025 4.70203 13.4288 5.01355C13.836 5.32837 14.1394 5.66235 14.3288 6.01086C14.5204 6.36292 14.6185 6.71252 14.6185 7.05103C14.6185 7.37708 14.4908 7.67395 14.2386 7.93152C13.9854 8.19238 13.6649 8.32385 13.2885 8.32385C12.9463 8.32385 12.6771 8.24072 12.4923 8.07874C12.319 7.927 12.1387 7.6908 11.9391 7.35352C11.7087 6.92175 11.4293 6.58105 11.1087 6.34033C10.7974 6.10645 10.2784 5.9895 9.56317 5.9895C8.90161 5.9895 8.36093 6.12 7.96057 6.37976C7.57504 6.6283 7.38684 6.91492 7.38684 7.25452C7.38684 7.46143 7.4473 7.63574 7.57275 7.78418C7.70279 7.94385 7.8887 8.08105 8.12369 8.198C8.36664 8.31824 8.61758 8.41504 8.86853 8.48242C9.12518 8.55334 9.55634 8.65784 10.1483 8.79285C10.8977 8.9502 11.5855 9.12903 12.1935 9.32129C12.8106 9.51465 13.3421 9.75305 13.7778 10.0331C14.2204 10.3175 14.5706 10.6819 14.8204 11.1182C15.0702 11.5577 15.1968 12.0975 15.1968 12.7261Z" fill="#00AEF3"/>
</svg>
