<svg width="72" height="72" viewBox="0 0 72 72" fill="none" xmlns="http://www.w3.org/2000/svg">
<path d="M11 11H62V18H11V11Z" fill="#D7DADF"/>
<path d="M52 17H61V61H52V17Z" fill="#D7DADF"/>
<path d="M16.5 46.5H34.5V50H16.5V46.5Z" fill="#4889EB"/>
<path d="M24.5 62L22.5 54H29L26 62H24.5Z" fill="#4889EB"/>
<path d="M69.3137 0.808594H64.5432C63.9606 0.808594 63.4886 1.28081 63.4886 1.86328C63.4886 2.44575 63.9606 2.91796 64.5432 2.91796H69.3137C69.6317 2.91796 69.8905 3.17671 69.8905 3.49467V51.7946C69.8905 52.1126 69.6317 52.3713 69.3137 52.3713H62.8359V11.85C62.8359 10.369 61.631 9.16395 60.1498 9.16395H20.4371V3.49467C20.4371 3.17671 20.6959 2.91796 21.0138 2.91796H60.2377C60.8203 2.91796 61.2924 2.44575 61.2924 1.86328C61.2924 1.28081 60.8203 0.808594 60.2377 0.808594H21.0138C19.5328 0.808594 18.3278 2.01361 18.3278 3.49467V9.16395H11.85C10.369 9.16395 9.16395 10.369 9.16395 11.85V17.5193H2.68621C1.20501 17.5193 0 18.7242 0 20.2054V68.5053C0 69.9864 1.20501 71.1914 2.68621 71.1914H40.9253C41.5079 71.1914 41.98 70.7192 41.98 70.1367C41.98 69.5543 41.5079 69.082 40.9253 69.082H2.68621C2.36812 69.082 2.10937 68.8233 2.10937 68.5053V20.2054C2.10937 19.8874 2.36812 19.6287 2.68621 19.6287H50.9862C51.3041 19.6287 51.5629 19.8874 51.5629 20.2054V39.9875C51.5629 40.57 52.035 41.0422 52.6176 41.0422C53.2002 41.0422 53.6722 40.57 53.6722 39.9875V20.2054C53.6722 18.7243 52.4674 17.5193 50.9862 17.5193H11.2733V11.85C11.2733 11.5321 11.5321 11.2733 11.85 11.2733H60.15C60.4679 11.2733 60.7267 11.5321 60.7267 11.85V60.15C60.7267 60.4679 60.4679 60.7267 60.15 60.7267H53.6722V44.2931C53.6722 43.7107 53.2002 43.2384 52.6176 43.2384C52.035 43.2384 51.5629 43.7107 51.5629 44.2931V68.5053C51.5629 68.8233 51.3041 69.082 50.9862 69.082H45.231C44.6484 69.082 44.1763 69.5543 44.1763 70.1367C44.1763 70.7192 44.6484 71.1914 45.231 71.1914H50.9862C52.4672 71.1914 53.6722 69.9864 53.6722 68.5053V62.8361H60.15C61.631 62.8361 62.8361 61.631 62.8361 60.15V54.4807H69.3138C70.7948 54.4807 72 53.2757 72 51.7946V3.49467C71.9999 2.01347 70.7949 0.808594 69.3137 0.808594Z" fill="#212121"/>
<path d="M52.6234 25.116H45.0002C42.688 25.116 40.8067 27.0135 40.8067 29.3459C40.8067 30.7032 39.7121 31.8074 38.3665 31.8074H30.6059V24.8842C30.6059 24.3959 30.2135 24 29.7293 24H20.9311C20.4469 24 20.0545 24.3959 20.0545 24.8842V29.1636C20.0545 29.6519 20.4469 30.0478 20.9311 30.0478C21.4153 30.0478 21.8077 29.6519 21.8077 29.1636V25.7684H28.8526V31.8074H26.8377V30.4655C26.8377 29.9772 26.4453 29.5813 25.9611 29.5813C25.4769 29.5813 25.0846 29.9772 25.0846 30.4655V42.8443C25.0846 43.3326 25.4769 43.7285 25.9611 43.7285C26.4453 43.7285 26.8377 43.3326 26.8377 42.8443V41.9217H28.8526V45.1328H21.8077V33.193C21.8077 32.7047 21.4153 32.3088 20.9311 32.3088C20.4469 32.3088 20.0545 32.7047 20.0545 33.193V45.1326H18.2563C16.4607 45.1326 15 46.6062 15 48.4173C14.9999 50.0684 16.214 51.4383 17.7889 51.6677V54.0242C17.7889 54.5125 18.1813 54.9084 18.6655 54.9084H18.9623V55.7273C18.9623 56.2156 19.3547 56.6115 19.8389 56.6115C20.3231 56.6115 20.7155 56.2156 20.7155 55.7273V54.9084H21.0769L23.1469 61.3955C23.458 62.3702 24.3149 63 25.3302 63C26.3455 63 27.2025 62.3702 27.5136 61.3954L29.5836 54.9084H29.9451V55.7273C29.9451 56.2156 30.3374 56.6115 30.8217 56.6115C31.3059 56.6115 31.6982 56.2156 31.6982 55.7273V54.9084H31.9951C32.4793 54.9084 32.8717 54.5125 32.8717 54.0242V51.6677C34.4466 51.4383 35.6606 50.0685 35.6606 48.4174C35.6606 46.6062 34.1999 45.1328 32.4043 45.1328H30.6059V41.9217H38.3665C40.6788 41.9217 42.5599 40.0242 42.5599 37.6918C42.5599 36.3345 43.6546 35.2303 45.0002 35.2303H52.6234C53.1076 35.2303 53.5 34.8344 53.5 34.3461V26.0002C53.5 25.5119 53.1076 25.116 52.6234 25.116ZM25.8446 60.8535C25.7357 61.1948 25.4485 61.2316 25.3302 61.2316C25.2119 61.2316 24.9247 61.1947 24.8159 60.8535L22.9187 54.9083H27.7419L25.8446 60.8535ZM31.1185 53.14H19.542V51.702H31.1185V53.14ZM32.4043 46.9011C33.2332 46.9011 33.9074 47.5813 33.9074 48.4173C33.9074 49.2533 33.233 49.9335 32.4043 49.9335H18.2563C17.4274 49.9335 16.7531 49.2533 16.7531 48.4173C16.7531 47.5813 17.4274 46.9011 18.2563 46.9011H32.4043ZM38.3665 40.1532H26.8377V39.1396H38.3665C39.228 39.1396 40.0293 38.876 40.6961 38.4249C40.386 39.4252 39.4589 40.1532 38.3665 40.1532ZM38.3665 37.3712H26.8377V36.3578H38.3665C39.2279 36.3578 40.0293 36.0942 40.6961 35.643C40.386 36.6433 39.4589 37.3712 38.3665 37.3712ZM38.3665 34.5893H26.8377V33.5758H38.3665C39.228 33.5758 40.0293 33.3122 40.6961 32.861C40.386 33.8613 39.4589 34.5893 38.3665 34.5893ZM51.7469 33.4618H45.0002C44.1388 33.4618 43.3374 33.7254 42.6706 34.1766C42.9806 33.1762 43.9077 32.4482 45.0002 32.4482H51.7469V33.4618ZM51.7469 30.6798H45.0002C44.1388 30.6798 43.3374 30.9436 42.6706 31.3946C42.9806 30.3943 43.9077 29.6663 45.0002 29.6663H51.7469V30.6798ZM51.7469 27.8979H45.0002C44.1388 27.8979 43.3374 28.1615 42.6706 28.6127C42.9806 27.6124 43.9076 26.8844 45.0002 26.8844H51.7469V27.8979Z" fill="#212121"/>
</svg>
