<svg width="81" height="81" viewBox="0 0 81 81" fill="none" xmlns="http://www.w3.org/2000/svg">
<path d="M45 76.5L46.5 80H75L75.5 76.5L74.5 70.5L70.5 69C64.8333 69 53.4 68.9 53 68.5C52.6 68.1 49.1667 69.3333 47.5 70L45 76.5Z" fill="#4889EB"/>
<path d="M18.5 6.5H33V23.5H29.5L23 26L18.5 23.5V6.5Z" fill="#4889EB"/>
<path d="M28 47L32 49.5V44.5C32 44.1 28.6667 41.6667 27 40.5L26.5 36H15.5L9.5 41.5V47.5L28 47Z" fill="#D7DADF"/>
<path d="M67 45L73 48.5V47C72.1667 44.6667 70.4 39.9 70 39.5C69.5 39 64.5 36 63.5 35.5C62.7 35.1 58.8333 35.3334 57 35.5L50.5 39L48 46L50 47.5C54 47.1667 62.2 46.4 63 46C63.8 45.6 66 45.1667 67 45Z" fill="#D7DADF"/>
<path d="M11.4134 67.0781C7.22545 67.0781 3.81966 70.4839 3.81966 74.6719C3.81966 75.3718 4.38539 75.9375 5.08528 75.9375C5.78391 75.9375 6.35091 75.3718 6.35091 74.6719C6.35091 71.8799 8.62144 69.6094 11.4134 69.6094C12.1133 69.6094 12.679 69.0436 12.679 68.3438C12.679 67.6439 12.1133 67.0781 11.4134 67.0781Z" fill="#212121"/>
<path d="M15.2103 67.0781H11.4134C10.7135 67.0781 10.1478 67.6439 10.1478 68.3438C10.1478 69.0436 10.7135 69.6094 11.4134 69.6094H15.2103C15.9089 69.6094 16.4759 69.0436 16.4759 68.3438C16.4759 67.6439 15.9102 67.0781 15.2103 67.0781Z" fill="#212121"/>
<path d="M5.08528 73.4062C4.38539 73.4062 3.81966 73.972 3.81966 74.6719V78.4688C3.81966 79.1686 4.38539 79.7344 5.08528 79.7344C5.78391 79.7344 6.35091 79.1686 6.35091 78.4688V74.6719C6.35091 73.972 5.78517 73.4062 5.08528 73.4062Z" fill="#212121"/>
<path d="M6.35091 78.4675C6.27497 77.8018 5.72949 77.2398 5.01947 77.2753C4.34869 77.312 3.81966 77.7967 3.81966 78.4688C3.81966 79.8647 4.95492 81 6.35091 81C7.04953 81 7.61653 80.433 7.61653 79.7331C7.61653 79.0345 7.04953 78.4675 6.35091 78.4675Z" fill="#212121"/>
<path d="M29.1322 67.0781C28.4323 67.0781 27.8665 67.6439 27.8665 68.3438C27.8665 69.0436 28.4323 69.6094 29.1322 69.6094C31.9241 69.6094 34.1947 71.8799 34.1947 74.6719C34.1947 75.3718 34.7604 75.9375 35.4603 75.9375C36.1589 75.9375 36.7259 75.3718 36.7259 74.6719C36.7259 70.4839 33.3201 67.0781 29.1322 67.0781Z" fill="#212121"/>
<path d="M29.1322 67.0781H25.3353C24.6354 67.0781 24.0697 67.6439 24.0697 68.3438C24.0697 69.0436 24.6354 69.6094 25.3353 69.6094H29.1322C29.8308 69.6094 30.3978 69.0436 30.3978 68.3438C30.3978 67.6439 29.832 67.0781 29.1322 67.0781Z" fill="#212121"/>
<path d="M35.4603 73.4062C34.7604 73.4062 34.1947 73.972 34.1947 74.6719V78.4688C34.1947 79.1686 34.7604 79.7344 35.4603 79.7344C36.1589 79.7344 36.7259 79.1686 36.7259 78.4688V74.6719C36.7259 73.972 36.1602 73.4062 35.4603 73.4062Z" fill="#212121"/>
<path d="M35.4603 77.2031C34.7604 77.2031 34.1947 77.7689 34.1947 78.4688C33.4948 78.4688 32.929 79.0345 32.929 79.7344C32.929 80.4343 33.4948 81 34.1947 81C35.5894 81 36.7259 79.8647 36.7259 78.4688C36.7259 77.7689 36.1602 77.2031 35.4603 77.2031Z" fill="#212121"/>
<path d="M34.1947 78.4688H6.35091C5.65102 78.4688 5.08528 79.0345 5.08528 79.7344C5.08528 80.4343 5.65102 81 6.35091 81H34.1947C34.8933 81 35.4603 80.4343 35.4603 79.7344C35.4603 79.0345 34.8946 78.4688 34.1947 78.4688Z" fill="#212121"/>
<path d="M15.2103 62.0967C14.5104 62.0967 13.9447 62.6624 13.9447 63.3623V68.3438C13.9447 69.0437 14.5104 69.6094 15.2103 69.6094C15.9089 69.6094 16.4759 69.0437 16.4759 68.3438V63.3623C16.4759 62.6624 15.9102 62.0967 15.2103 62.0967Z" fill="#212121"/>
<path d="M25.3353 62.0967C24.6354 62.0967 24.0697 62.6624 24.0697 63.3623V68.3438C24.0697 69.0437 24.6354 69.6094 25.3353 69.6094C26.0339 69.6094 26.6009 69.0437 26.6009 68.3438V63.3623C26.6009 62.6624 26.0352 62.0967 25.3353 62.0967Z" fill="#212121"/>
<path d="M31.6634 51.8932C30.9635 51.8932 30.3978 52.4589 30.3978 53.1588C30.3978 58.7402 25.8555 63.2813 20.2715 63.2813C14.6888 63.2813 10.1478 58.7402 10.1478 53.1588C10.1478 52.4589 9.58205 51.8932 8.88216 51.8932C8.18227 51.8932 7.61653 52.4589 7.61653 53.1588C7.61653 60.1362 13.2929 65.8125 20.2715 65.8125C27.2502 65.8125 32.929 60.1362 32.929 53.1588C32.929 52.4589 32.3633 51.8932 31.6634 51.8932Z" fill="#212121"/>
<path d="M8.88216 44.2969C8.18227 44.2969 7.61653 44.8626 7.61653 45.5625V53.2208C7.61653 53.9207 8.18227 54.4864 8.88216 54.4864C9.58078 54.4864 10.1478 53.9207 10.1478 53.2208V45.5625C10.1478 44.8626 9.58205 44.2969 8.88216 44.2969Z" fill="#212121"/>
<path d="M31.6634 44.2969C30.9635 44.2969 30.3978 44.8626 30.3978 45.5625V53.1588C30.3978 53.8587 30.9635 54.4244 31.6634 54.4244C32.362 54.4244 32.929 53.8587 32.929 53.1588V45.5625C32.929 44.8626 32.3633 44.2969 31.6634 44.2969Z" fill="#212121"/>
<path d="M26.6009 39.2344C25.901 39.2344 25.3353 39.8001 25.3353 40.5C25.3353 41.1999 25.901 41.7656 26.6009 41.7656C28.6943 41.7656 30.3978 43.4692 30.3978 45.5612C30.3978 46.2611 30.9635 46.8269 31.6634 46.8269C32.362 46.8269 32.929 46.2611 32.929 45.5612C32.929 42.0719 30.0902 39.2344 26.6009 39.2344Z" fill="#212121"/>
<path d="M26.6009 34.1719C25.901 34.1719 25.3353 34.7376 25.3353 35.4375V40.5C25.3353 41.1999 25.901 41.7656 26.6009 41.7656C27.2995 41.7656 27.8665 41.1999 27.8665 40.5V35.4375C27.8665 34.7376 27.3008 34.1719 26.6009 34.1719Z" fill="#212121"/>
<path d="M26.6009 34.1719H19.0072C18.3073 34.1719 17.7415 34.7376 17.7415 35.4375C17.7415 36.1374 18.3073 36.7031 19.0072 36.7031H26.6009C27.2995 36.7031 27.8665 36.1374 27.8665 35.4375C27.8665 34.7376 27.3008 34.1719 26.6009 34.1719Z" fill="#212121"/>
<path d="M19.0072 34.1719C12.7259 34.1719 7.61653 39.2812 7.61653 45.5625C7.61653 46.2624 8.18227 46.8281 8.88216 46.8281C9.58078 46.8281 10.1478 46.2624 10.1478 45.5625C10.1478 40.6785 14.1231 36.7031 19.0072 36.7031C19.707 36.7031 20.2728 36.1374 20.2728 35.4375C20.2728 34.7376 19.707 34.1719 19.0072 34.1719Z" fill="#212121"/>
<path d="M32.3709 48.3406L28.574 45.7777C27.9931 45.3879 27.2071 45.541 26.8161 46.1194C26.4263 46.6991 26.5781 47.485 27.1578 47.8774L30.9547 50.4403C31.1723 50.5858 31.4191 50.6567 31.6621 50.6567C32.0684 50.6567 32.4671 50.4618 32.7126 50.0985C33.1024 49.5189 32.9505 48.7329 32.3709 48.3406Z" fill="#212121"/>
<path d="M29.0005 46.2713C28.693 45.6461 27.9336 45.3891 27.3084 45.6929C27.2843 45.7043 24.9277 46.8282 20.9056 46.8282C16.7569 46.8282 13.1131 45.6397 13.0777 45.6258C12.412 45.4056 11.6982 45.7676 11.478 46.4295C11.259 47.0927 11.6184 47.8077 12.2804 48.0292C12.4424 48.0837 16.3342 49.3594 20.9056 49.3594C25.5694 49.3594 28.3158 48.0178 28.4323 47.9622C29.055 47.6508 29.3081 46.8965 29.0005 46.2713Z" fill="#212121"/>
<path d="M13.7282 46.1207C13.3359 45.541 12.5512 45.3879 11.9703 45.779L8.17341 48.3418C7.59375 48.7342 7.44187 49.5201 7.83295 50.0998C8.07722 50.4618 8.47716 50.6567 8.88342 50.6567C9.12642 50.6567 9.37195 50.5871 9.58964 50.4415L13.3865 47.8786C13.9662 47.4863 14.1193 46.7003 13.7282 46.1207Z" fill="#212121"/>
<path d="M18.3085 68.4778L15.7773 67.2122C15.1521 66.9021 14.3927 67.1527 14.0788 67.7779C13.7662 68.4032 14.0193 69.1638 14.6445 69.4764L17.1758 70.742C17.3568 70.8319 17.5504 70.8749 17.7403 70.8749C18.2048 70.8749 18.6503 70.6193 18.8743 70.1763C19.1869 69.5511 18.9338 68.7904 18.3085 68.4778Z" fill="#212121"/>
<path d="M21.4042 67.7767C21.0904 67.1515 20.331 66.9009 19.7058 67.211L17.1745 68.4766C16.5493 68.7892 16.2962 69.5498 16.6088 70.1751C16.8315 70.6193 17.2783 70.875 17.7428 70.875C17.9326 70.875 18.125 70.8319 18.3073 70.7408L20.8385 69.4752C21.4637 69.1626 21.7169 68.4019 21.4042 67.7767Z" fill="#212121"/>
<path d="M26.4667 67.7767C26.1529 67.1515 25.3922 66.9009 24.7683 67.211L22.237 68.4766C21.6118 68.7892 21.3587 69.5498 21.6713 70.1751C21.894 70.6193 22.3408 70.875 22.8053 70.875C22.9951 70.875 23.1875 70.8319 23.3698 70.7408L25.901 69.4752C26.5262 69.1626 26.7794 68.4019 26.4667 67.7767Z" fill="#212121"/>
<path d="M23.371 68.4778L20.8398 67.2122C20.2146 66.9021 19.4552 67.1527 19.1413 67.7779C18.8287 68.4032 19.0818 69.1638 19.707 69.4764L22.2383 70.742C22.4193 70.8319 22.6129 70.8749 22.8028 70.8749C23.2673 70.8749 23.7127 70.6193 23.9368 70.1763C24.2494 69.5511 23.9962 68.7904 23.371 68.4778Z" fill="#212121"/>
<path d="M49.3366 46.3724C48.6367 46.3724 48.071 46.9382 48.071 47.6381V53.1056C48.071 53.8054 48.6367 54.3712 49.3366 54.3712C50.0365 54.3712 50.6022 53.8054 50.6022 53.1056V47.6381C50.6022 46.9382 50.0365 46.3724 49.3366 46.3724Z" fill="#212121"/>
<path d="M72.1178 46.1941C71.4179 46.1941 70.8522 46.7598 70.8522 47.4597V53.1563C70.8522 53.8562 71.4179 54.4219 72.1178 54.4219C72.8177 54.4219 73.3835 53.8562 73.3835 53.1563V47.4597C73.3835 46.7598 72.8177 46.1941 72.1178 46.1941Z" fill="#212121"/>
<path d="M60.0931 34.1719C52.7664 34.1719 46.8053 40.133 46.8053 47.4597C46.8053 48.1596 47.3711 48.7253 48.071 48.7253C48.7709 48.7253 49.3366 48.1596 49.3366 47.4597C49.3366 41.529 54.1612 36.7031 60.0931 36.7031C66.0264 36.7031 70.8522 41.5277 70.8522 47.4597C70.8522 48.1596 71.4179 48.7253 72.1178 48.7253C72.8177 48.7253 73.3835 48.1596 73.3835 47.4597C73.3835 40.133 67.4211 34.1719 60.0931 34.1719Z" fill="#212121"/>
<path d="M73.124 48.2291C68.9677 42.8047 65.9834 43.7716 62.2067 44.9929C59.211 45.9611 55.1015 47.2888 48.2697 46.2092C47.5824 46.0978 46.9294 46.5712 46.8218 47.2609C46.7117 47.952 47.1838 48.6 47.8735 48.7088C55.3129 49.8884 59.7464 48.4494 62.9838 47.4014C66.6668 46.2092 68.0463 45.7624 71.1129 49.7694C71.3623 50.0947 71.7382 50.2655 72.1191 50.2655C72.3874 50.2655 72.6583 50.1795 72.8886 50.0036C73.4442 49.5783 73.5493 48.7835 73.124 48.2291Z" fill="#212121"/>
<path d="M70.3257 39.0522C69.7562 38.6446 68.9664 38.7737 68.5589 39.3407L64.762 44.6146C64.3545 45.1828 64.4836 45.9739 65.0506 46.3814C65.2746 46.5409 65.5328 46.6193 65.7885 46.6193C66.1821 46.6193 66.5706 46.4358 66.8174 46.0928L70.6143 40.819C71.0218 40.2507 70.8927 39.4597 70.3257 39.0522Z" fill="#212121"/>
<path d="M51.8678 67.0781C47.6799 67.0781 44.2741 70.4839 44.2741 74.6719C44.2741 75.3718 44.8398 75.9375 45.5397 75.9375C46.2396 75.9375 46.8053 75.3718 46.8053 74.6719C46.8053 71.8799 49.0759 69.6094 51.8678 69.6094C52.5677 69.6094 53.1335 69.0436 53.1335 68.3438C53.1335 67.6439 52.5677 67.0781 51.8678 67.0781Z" fill="#212121"/>
<path d="M55.6647 67.0781H51.8678C51.168 67.0781 50.6022 67.6439 50.6022 68.3438C50.6022 69.0436 51.168 69.6094 51.8678 69.6094H55.6647C56.3646 69.6094 56.9303 69.0436 56.9303 68.3438C56.9303 67.6439 56.3646 67.0781 55.6647 67.0781Z" fill="#212121"/>
<path d="M45.5397 73.4062C44.8398 73.4062 44.2741 73.972 44.2741 74.6719V78.4688C44.2741 79.1686 44.8398 79.7344 45.5397 79.7344C46.2396 79.7344 46.8053 79.1686 46.8053 78.4688V74.6719C46.8053 73.972 46.2396 73.4062 45.5397 73.4062Z" fill="#212121"/>
<path d="M46.8053 78.4675C46.7307 77.8018 46.1725 77.2398 45.4739 77.2753C44.8031 77.312 44.2741 77.7967 44.2741 78.4688C44.2741 79.8647 45.4094 81 46.8053 81C47.5052 81 48.071 80.433 48.071 79.7331C48.071 79.0345 47.504 78.4675 46.8053 78.4675Z" fill="#212121"/>
<path d="M69.5866 67.0781C68.8867 67.0781 68.321 67.6439 68.321 68.3438C68.321 69.0436 68.8867 69.6094 69.5866 69.6094C72.3786 69.6094 74.6491 71.8799 74.6491 74.6719C74.6491 75.3718 75.2148 75.9375 75.9147 75.9375C76.6146 75.9375 77.1803 75.3718 77.1803 74.6719C77.1803 70.4839 73.7745 67.0781 69.5866 67.0781Z" fill="#212121"/>
<path d="M69.5866 67.0781H65.7897C65.0898 67.0781 64.5241 67.6439 64.5241 68.3438C64.5241 69.0436 65.0898 69.6094 65.7897 69.6094H69.5866C70.2865 69.6094 70.8522 69.0436 70.8522 68.3438C70.8522 67.6439 70.2865 67.0781 69.5866 67.0781Z" fill="#212121"/>
<path d="M75.9147 73.4062C75.2148 73.4062 74.6491 73.972 74.6491 74.6719V78.4688C74.6491 79.1686 75.2148 79.7344 75.9147 79.7344C76.6146 79.7344 77.1803 79.1686 77.1803 78.4688V74.6719C77.1803 73.972 76.6146 73.4062 75.9147 73.4062Z" fill="#212121"/>
<path d="M75.9147 77.2031C75.2148 77.2031 74.6491 77.7689 74.6491 78.4688C73.9492 78.4688 73.3835 79.0345 73.3835 79.7344C73.3835 80.4343 73.9492 81 74.6491 81C76.0451 81 77.1803 79.8647 77.1803 78.4688C77.1803 77.7689 76.6146 77.2031 75.9147 77.2031Z" fill="#212121"/>
<path d="M74.6491 78.4688H46.8053C46.1055 78.4688 45.5397 79.0345 45.5397 79.7344C45.5397 80.4343 46.1055 81 46.8053 81H74.6491C75.349 81 75.9147 80.4343 75.9147 79.7344C75.9147 79.0345 75.349 78.4688 74.6491 78.4688Z" fill="#212121"/>
<path d="M55.6647 62.0967C54.9648 62.0967 54.3991 62.6624 54.3991 63.3623V68.3438C54.3991 69.0437 54.9648 69.6094 55.6647 69.6094C56.3646 69.6094 56.9303 69.0437 56.9303 68.3438V63.3623C56.9303 62.6624 56.3646 62.0967 55.6647 62.0967Z" fill="#212121"/>
<path d="M65.7897 62.0967C65.0898 62.0967 64.5241 62.6624 64.5241 63.3623V68.3438C64.5241 69.0437 65.0898 69.6094 65.7897 69.6094C66.4896 69.6094 67.0553 69.0437 67.0553 68.3438V63.3623C67.0553 62.6624 66.4896 62.0967 65.7897 62.0967Z" fill="#212121"/>
<path d="M72.1178 51.8932C71.4179 51.8932 70.8522 52.4589 70.8522 53.1588C70.8522 58.7402 66.3099 63.2813 60.726 63.2813C55.1433 63.2813 50.6022 58.7402 50.6022 53.1588C50.6022 52.4589 50.0365 51.8932 49.3366 51.8932C48.6367 51.8932 48.071 52.4589 48.071 53.1588C48.071 60.1362 53.7473 65.8125 60.726 65.8125C67.7059 65.8125 73.3835 60.1362 73.3835 53.1588C73.3835 52.4589 72.8177 51.8932 72.1178 51.8932Z" fill="#212121"/>
<path d="M58.763 68.4778L56.2317 67.2122C55.6078 66.9021 54.8471 67.1527 54.5333 67.7779C54.2206 68.4032 54.4738 69.1638 55.099 69.4764L57.6302 70.742C57.8112 70.8319 58.0049 70.8749 58.1947 70.8749C58.6605 70.8749 59.106 70.6193 59.3287 70.1763C59.6413 69.5511 59.3882 68.7904 58.763 68.4778Z" fill="#212121"/>
<path d="M61.8587 67.7767C61.5448 67.1515 60.7867 66.9009 60.1602 67.211L57.629 68.4766C57.0038 68.7892 56.7506 69.5498 57.0632 70.1751C57.286 70.6193 57.7328 70.875 58.1972 70.875C58.3883 70.875 58.5807 70.8319 58.7617 70.7408L61.293 69.4752C61.9182 69.1626 62.1713 68.4019 61.8587 67.7767Z" fill="#212121"/>
<path d="M66.9212 67.7767C66.6073 67.1515 65.8479 66.9009 65.2227 67.211L62.6915 68.4766C62.0663 68.7892 61.8131 69.5498 62.1257 70.1751C62.3485 70.6193 62.7953 70.875 63.2597 70.875C63.4508 70.875 63.6432 70.8319 63.8242 70.7408L66.3555 69.4752C66.9807 69.1626 67.2338 68.4019 66.9212 67.7767Z" fill="#212121"/>
<path d="M63.8255 68.4778L61.2942 67.2122C60.669 66.9021 59.9096 67.1527 59.5958 67.7779C59.2831 68.4032 59.5363 69.1638 60.1615 69.4764L62.6927 70.742C62.8737 70.8319 63.0674 70.8749 63.2572 70.8749C63.723 70.8749 64.1685 70.6193 64.3912 70.1763C64.7038 69.5511 64.4507 68.7904 63.8255 68.4778Z" fill="#212121"/>
<path d="M63.2812 0H32.9062C32.2064 0 31.6406 0.565734 31.6406 1.26562V29.1094C31.6406 29.8093 32.2064 30.375 32.9062 30.375H47.8495L53.9523 32.8164C54.1029 32.8771 54.2624 32.9062 54.4219 32.9062C54.6712 32.9062 54.9193 32.8316 55.1319 32.6886C55.4787 32.4532 55.6875 32.0608 55.6875 31.6406V30.375H63.2812C63.9811 30.375 64.5469 29.8093 64.5469 29.1094V1.26562C64.5469 0.565734 63.9811 0 63.2812 0ZM62.0156 27.8438H54.4219C53.722 27.8438 53.1562 28.4095 53.1562 29.1094V29.7713L48.562 27.9336C48.4127 27.8741 48.2532 27.8438 48.0925 27.8438H34.1719V2.53125H62.0156V27.8438Z" fill="#212121"/>
<path d="M32.929 22.7812H27.8678C27.7071 22.7812 27.5476 22.8116 27.3983 22.8711L22.804 24.7088V24.0469C22.804 23.347 22.2383 22.7812 21.5384 22.7812H19.0072V7.59375H32.929C33.6289 7.59375 34.1947 7.02802 34.1947 6.32812C34.1947 5.62823 33.6289 5.0625 32.929 5.0625H17.7415C17.0416 5.0625 16.4759 5.62823 16.4759 6.32812V24.0469C16.4759 24.7468 17.0416 25.3125 17.7415 25.3125H20.2728V26.5781C20.2728 26.9983 20.4816 27.3894 20.8284 27.6261C21.041 27.7691 21.2891 27.8438 21.5384 27.8438C21.6979 27.8438 21.8573 27.8146 22.008 27.7539L28.1108 25.3125H32.929C33.6289 25.3125 34.1947 24.7468 34.1947 24.0469C34.1947 23.347 33.6289 22.7812 32.929 22.7812Z" fill="#212121"/>
<path d="M20 60C21.3197 60 22.5033 59.2488 22.9454 58.1307C23.1195 57.69 22.8635 57.2058 22.3735 57.0491C21.8836 56.8926 21.3451 57.1226 21.1708 57.5634C20.9951 58.0078 20.5246 58.3065 20 58.3065C19.4753 58.3065 19.0049 58.0078 18.8292 57.5635C18.6551 57.1228 18.1166 56.8928 17.6265 57.0492C17.1365 57.2058 16.8805 57.6901 17.0546 58.1308C17.4966 59.2488 18.6802 60 20 60Z" fill="#212121"/>
<circle cx="16.5" cy="52.5" r="1.5" fill="#212121"/>
<circle cx="23.5" cy="52.5" r="1.5" fill="#212121"/>
<path d="M61 60C62.3197 60 63.5033 59.2488 63.9454 58.1307C64.1195 57.69 63.8635 57.2058 63.3735 57.0491C62.8836 56.8926 62.3451 57.1226 62.1708 57.5634C61.9951 58.0078 61.5246 58.3065 61 58.3065C60.4753 58.3065 60.0049 58.0078 59.8292 57.5635C59.6551 57.1228 59.1166 56.8928 58.6265 57.0492C58.1365 57.2058 57.8805 57.6901 58.0546 58.1308C58.4966 59.2488 59.6802 60 61 60Z" fill="#212121"/>
<circle cx="57.5" cy="52.5" r="1.5" fill="#212121"/>
<circle cx="64.5" cy="52.5" r="1.5" fill="#212121"/>
<rect x="39" y="7" width="18" height="3" rx="1.5" fill="#212121"/>
<rect x="39" y="13" width="18" height="3" rx="1.5" fill="#212121"/>
<rect x="39" y="19" width="11" height="3" rx="1.5" fill="#212121"/>
</svg>
